<svg xmlns="http://www.w3.org/2000/svg" viewBox="0 0 1200 675" fill="none">
  <rect width="1200" height="675" fill="#0f172a"/>
  <rect x="160" y="100" width="220" height="440" rx="28" fill="#1e293b" stroke="#334155" stroke-width="1.5"/>
  <rect x="174" y="140" width="192" height="360" rx="4" fill="#0f172a"/>
  <rect x="230" y="110" width="80" height="8" rx="4" fill="#334155"/>
  <rect x="194" y="160" width="152" height="24" rx="4" fill="#0ea5e9" opacity="0.2"/>
  <rect x="194" y="196" width="152" height="80" rx="8" fill="#1e293b"/>
  <rect x="194" y="290" width="72" height="72" rx="12" fill="#0ea5e9" opacity="0.15"/>
  <rect x="274" y="290" width="72" height="72" rx="12" fill="#0ea5e9" opacity="0.1"/>
  <rect x="194" y="376" width="72" height="72" rx="12" fill="#0ea5e9" opacity="0.1"/>
  <rect x="274" y="376" width="72" height="72" rx="12" fill="#0ea5e9" opacity="0.05"/>
  <text x="230" y="334" font-family="sans-serif" font-size="20" fill="#38bdf8" text-anchor="middle">iOS</text>
  <text x="270" y="510" font-family="sans-serif" font-size="16" fill="#94a3b8" text-anchor="middle">Nativa</text>
  <rect x="820" y="100" width="220" height="440" rx="28" fill="#1e293b" stroke="#0ea5e9" stroke-width="1.5"/>
  <rect x="834" y="140" width="192" height="360" rx="4" fill="#0f172a"/>
  <rect x="890" y="110" width="80" height="8" rx="4" fill="#334155"/>
  <rect x="854" y="160" width="152" height="24" rx="4" fill="#0ea5e9" opacity="0.2"/>
  <rect x="854" y="196" width="152" height="80" rx="8" fill="#1e293b"/>
  <rect x="854" y="290" width="72" height="72" rx="12" fill="#0ea5e9" opacity="0.15"/>
  <rect x="934" y="290" width="72" height="72" rx="12" fill="#0ea5e9" opacity="0.1"/>
  <rect x="854" y="376" width="72" height="72" rx="12" fill="#0ea5e9" opacity="0.1"/>
  <rect x="934" y="376" width="72" height="72" rx="12" fill="#0ea5e9" opacity="0.05"/>
  <text x="890" y="334" font-family="sans-serif" font-size="18" fill="#38bdf8" text-anchor="middle">Cross</text>
  <text x="930" y="510" font-family="sans-serif" font-size="16" fill="#94a3b8" text-anchor="middle">Cross-platform</text>
  <text x="600" y="300" font-family="sans-serif" font-size="40" fill="#64748b" text-anchor="middle" font-weight="bold">VS</text>
  <line x1="440" y1="320" x2="540" y2="320" stroke="#334155" stroke-width="1" stroke-dasharray="6 4"/>
  <line x1="660" y1="320" x2="760" y2="320" stroke="#334155" stroke-width="1" stroke-dasharray="6 4"/>
  <circle cx="600" cy="300" r="50" fill="#0ea5e9" fill-opacity="0.05" stroke="#0ea5e9" stroke-width="1" stroke-opacity="0.2"/>
</svg>