<svg xmlns="http://www.w3.org/2000/svg" viewBox="0 0 1200 675" fill="none">
  <rect width="1200" height="675" fill="#0f172a"/>
  <circle cx="600" cy="340" r="160" fill="#0ea5e9" fill-opacity="0.04" stroke="#0ea5e9" stroke-width="1" stroke-opacity="0.15"/>
  <circle cx="600" cy="340" r="110" fill="#0ea5e9" fill-opacity="0.06" stroke="#0ea5e9" stroke-width="1" stroke-opacity="0.2"/>
  <circle cx="600" cy="340" r="60" fill="#1e293b" stroke="#0ea5e9" stroke-width="1.5"/>
  <text x="600" y="348" font-family="sans-serif" font-size="28" fill="#38bdf8" text-anchor="middle" font-weight="bold">AI</text>
  <rect x="80" y="120" width="240" height="120" rx="16" fill="#1e293b" stroke="#334155" stroke-width="1"/>
  <text x="200" y="165" font-family="sans-serif" font-size="20" text-anchor="middle">&#128202;</text>
  <text x="200" y="195" font-family="sans-serif" font-size="13" fill="#94a3b8" text-anchor="middle">Analisi Dati</text>
  <text x="200" y="218" font-family="sans-serif" font-size="11" fill="#0ea5e9" text-anchor="middle">Predittiva</text>
  <line x1="320" y1="180" x2="490" y2="290" stroke="#0ea5e9" stroke-width="1" opacity="0.3"/>
  <rect x="880" y="120" width="240" height="120" rx="16" fill="#1e293b" stroke="#334155" stroke-width="1"/>
  <text x="1000" y="165" font-family="sans-serif" font-size="20" text-anchor="middle">&#129302;</text>
  <text x="1000" y="195" font-family="sans-serif" font-size="13" fill="#94a3b8" text-anchor="middle">Chatbot</text>
  <text x="1000" y="218" font-family="sans-serif" font-size="11" fill="#0ea5e9" text-anchor="middle">24/7 Support</text>
  <line x1="880" y1="180" x2="710" y2="290" stroke="#0ea5e9" stroke-width="1" opacity="0.3"/>
  <rect x="80" y="420" width="240" height="120" rx="16" fill="#1e293b" stroke="#334155" stroke-width="1"/>
  <text x="200" y="465" font-family="sans-serif" font-size="20" text-anchor="middle">&#9881;&#65039;</text>
  <text x="200" y="495" font-family="sans-serif" font-size="13" fill="#94a3b8" text-anchor="middle">Automazione</text>
  <text x="200" y="518" font-family="sans-serif" font-size="11" fill="#0ea5e9" text-anchor="middle">Processi</text>
  <line x1="320" y1="480" x2="490" y2="390" stroke="#0ea5e9" stroke-width="1" opacity="0.3"/>
  <rect x="880" y="420" width="240" height="120" rx="16" fill="#1e293b" stroke="#334155" stroke-width="1"/>
  <text x="1000" y="465" font-family="sans-serif" font-size="20" text-anchor="middle">&#128200;</text>
  <text x="1000" y="495" font-family="sans-serif" font-size="13" fill="#94a3b8" text-anchor="middle">Marketing</text>
  <text x="1000" y="518" font-family="sans-serif" font-size="11" fill="#0ea5e9" text-anchor="middle">Personalizzato</text>
  <line x1="880" y1="480" x2="710" y2="390" stroke="#0ea5e9" stroke-width="1" opacity="0.3"/>
  <circle cx="490" cy="290" r="5" fill="#0ea5e9" opacity="0.5"/>
  <circle cx="710" cy="290" r="5" fill="#0ea5e9" opacity="0.5"/>
  <circle cx="490" cy="390" r="5" fill="#0ea5e9" opacity="0.5"/>
  <circle cx="710" cy="390" r="5" fill="#0ea5e9" opacity="0.5"/>
</svg>