<svg xmlns="http://www.w3.org/2000/svg" viewBox="0 0 1200 675" fill="none">
  <rect width="1200" height="675" fill="#0f172a"/>
  <rect x="60" y="80" width="700" height="520" rx="20" fill="#1e293b" stroke="#334155" stroke-width="1"/>
  <rect x="60" y="80" width="700" height="50" rx="20" fill="#1e293b"/>
  <rect x="60" y="128" width="700" height="2" fill="#334155"/>
  <text x="410" y="110" font-family="sans-serif" font-size="14" fill="#94a3b8" text-anchor="middle">Google Analytics 4 — Dashboard</text>
  <rect x="90" y="150" width="200" height="90" rx="12" fill="#0f172a" stroke="#334155" stroke-width="1"/>
  <text x="110" y="175" font-family="sans-serif" font-size="11" fill="#64748b">Utenti attivi</text>
  <text x="110" y="215" font-family="sans-serif" font-size="28" fill="#0ea5e9" font-weight="bold">2.4K</text>
  <text x="200" y="215" font-family="sans-serif" font-size="11" fill="#22c55e">+18%</text>
  <rect x="310" y="150" width="200" height="90" rx="12" fill="#0f172a" stroke="#334155" stroke-width="1"/>
  <text x="330" y="175" font-family="sans-serif" font-size="11" fill="#64748b">Sessioni</text>
  <text x="330" y="215" font-family="sans-serif" font-size="28" fill="#38bdf8" font-weight="bold">5.1K</text>
  <text x="420" y="215" font-family="sans-serif" font-size="11" fill="#22c55e">+24%</text>
  <rect x="530" y="150" width="200" height="90" rx="12" fill="#0f172a" stroke="#334155" stroke-width="1"/>
  <text x="550" y="175" font-family="sans-serif" font-size="11" fill="#64748b">Conversioni</text>
  <text x="550" y="215" font-family="sans-serif" font-size="28" fill="#22c55e" font-weight="bold">347</text>
  <text x="630" y="215" font-family="sans-serif" font-size="11" fill="#22c55e">+31%</text>
  <rect x="90" y="260" width="640" height="200" rx="12" fill="#0f172a" stroke="#334155" stroke-width="1"/>
  <text x="110" y="290" font-family="sans-serif" font-size="12" fill="#64748b">Traffico per canale</text>
  <rect x="130" y="310" width="40" height="130" rx="4" fill="#0ea5e9" opacity="0.15"/>
  <rect x="130" y="360" width="40" height="80" rx="4" fill="#0ea5e9"/>
  <text x="150" y="445" font-family="sans-serif" font-size="9" fill="#64748b" text-anchor="middle">Organic</text>
  <rect x="220" y="310" width="40" height="130" rx="4" fill="#0ea5e9" opacity="0.15"/>
  <rect x="220" y="380" width="40" height="60" rx="4" fill="#38bdf8"/>
  <text x="240" y="445" font-family="sans-serif" font-size="9" fill="#64748b" text-anchor="middle">Direct</text>
  <rect x="310" y="310" width="40" height="130" rx="4" fill="#0ea5e9" opacity="0.15"/>
  <rect x="310" y="400" width="40" height="40" rx="4" fill="#60a5fa"/>
  <text x="330" y="445" font-family="sans-serif" font-size="9" fill="#64748b" text-anchor="middle">Social</text>
  <rect x="400" y="310" width="40" height="130" rx="4" fill="#0ea5e9" opacity="0.15"/>
  <rect x="400" y="370" width="40" height="70" rx="4" fill="#818cf8"/>
  <text x="420" y="445" font-family="sans-serif" font-size="9" fill="#64748b" text-anchor="middle">Paid</text>
  <rect x="490" y="310" width="40" height="130" rx="4" fill="#0ea5e9" opacity="0.15"/>
  <rect x="490" y="410" width="40" height="30" rx="4" fill="#a78bfa"/>
  <text x="510" y="445" font-family="sans-serif" font-size="9" fill="#64748b" text-anchor="middle">Email</text>
  <rect x="90" y="480" width="300" height="44" rx="8" fill="#0ea5e9" fill-opacity="0.1" stroke="#0ea5e9" stroke-width="1" stroke-opacity="0.3"/>
  <text x="240" y="508" font-family="sans-serif" font-size="12" fill="#38bdf8" text-anchor="middle">&#9881; Configura evento personalizzato</text>
  <rect x="840" y="120" width="280" height="440" rx="16" fill="#1e293b" stroke="#334155" stroke-width="1"/>
  <text x="980" y="160" font-family="sans-serif" font-size="14" fill="white" text-anchor="middle" font-weight="bold">GTM Tags</text>
  <line x1="860" y1="176" x2="1100" y2="176" stroke="#334155" stroke-width="1"/>
  <rect x="870" y="196" width="220" height="50" rx="8" fill="#0f172a" stroke="#334155" stroke-width="1"/>
  <circle cx="895" cy="221" r="10" fill="#22c55e" opacity="0.2"/>
  <circle cx="895" cy="221" r="4" fill="#22c55e"/>
  <text x="915" y="225" font-family="sans-serif" font-size="12" fill="#94a3b8">GA4 - Page View</text>
  <rect x="870" y="260" width="220" height="50" rx="8" fill="#0f172a" stroke="#334155" stroke-width="1"/>
  <circle cx="895" cy="285" r="10" fill="#22c55e" opacity="0.2"/>
  <circle cx="895" cy="285" r="4" fill="#22c55e"/>
  <text x="915" y="289" font-family="sans-serif" font-size="12" fill="#94a3b8">GA4 - Purchase</text>
  <rect x="870" y="324" width="220" height="50" rx="8" fill="#0f172a" stroke="#334155" stroke-width="1"/>
  <circle cx="895" cy="349" r="10" fill="#eab308" opacity="0.2"/>
  <circle cx="895" cy="349" r="4" fill="#eab308"/>
  <text x="915" y="353" font-family="sans-serif" font-size="12" fill="#94a3b8">Meta Pixel</text>
  <rect x="870" y="388" width="220" height="50" rx="8" fill="#0f172a" stroke="#334155" stroke-width="1"/>
  <circle cx="895" cy="413" r="10" fill="#22c55e" opacity="0.2"/>
  <circle cx="895" cy="413" r="4" fill="#22c55e"/>
  <text x="915" y="417" font-family="sans-serif" font-size="12" fill="#94a3b8">Scroll Depth</text>
  <rect x="870" y="452" width="220" height="50" rx="8" fill="#0f172a" stroke="#0ea5e9" stroke-width="1"/>
  <circle cx="895" cy="477" r="10" fill="#0ea5e9" opacity="0.2"/>
  <text x="895" y="481" font-family="sans-serif" font-size="10" fill="#0ea5e9" text-anchor="middle">+</text>
  <text x="915" y="481" font-family="sans-serif" font-size="12" fill="#38bdf8">Nuovo tag...</text>
</svg>