<svg xmlns="http://www.w3.org/2000/svg" viewBox="0 0 1200 675" fill="none">
  <rect width="1200" height="675" fill="#0f172a"/>
  <rect x="80" y="100" width="440" height="480" rx="20" fill="#1e293b" stroke="#334155" stroke-width="1"/>
  <circle cx="300" cy="200" r="50" fill="#1877f2" opacity="0.15"/>
  <text x="300" y="210" font-family="sans-serif" font-size="14" fill="#60a5fa" text-anchor="middle" font-weight="bold">META</text>
  <text x="300" y="280" font-family="sans-serif" font-size="18" fill="white" text-anchor="middle" font-weight="bold">Facebook Ads</text>
  <rect x="120" y="310" width="320" height="40" rx="8" fill="#0f172a"/>
  <rect x="120" y="310" width="224" height="40" rx="8" fill="#1877f2" opacity="0.2"/>
  <text x="140" y="336" font-family="sans-serif" font-size="12" fill="#60a5fa">Awareness</text>
  <text x="420" y="336" font-family="sans-serif" font-size="12" fill="#94a3b8" text-anchor="end">70%</text>
  <rect x="120" y="365" width="320" height="40" rx="8" fill="#0f172a"/>
  <rect x="120" y="365" width="256" height="40" rx="8" fill="#1877f2" opacity="0.15"/>
  <text x="140" y="391" font-family="sans-serif" font-size="12" fill="#60a5fa">Targeting</text>
  <text x="420" y="391" font-family="sans-serif" font-size="12" fill="#94a3b8" text-anchor="end">80%</text>
  <rect x="120" y="420" width="320" height="40" rx="8" fill="#0f172a"/>
  <rect x="120" y="420" width="192" height="40" rx="8" fill="#1877f2" opacity="0.1"/>
  <text x="140" y="446" font-family="sans-serif" font-size="12" fill="#60a5fa">Conversione</text>
  <text x="420" y="446" font-family="sans-serif" font-size="12" fill="#94a3b8" text-anchor="end">60%</text>
  <text x="300" y="510" font-family="sans-serif" font-size="14" fill="#60a5fa" text-anchor="middle">CPM: 5-15€</text>
  <text x="300" y="540" font-family="sans-serif" font-size="12" fill="#94a3b8" text-anchor="middle">Ideale per B2C e brand</text>
  <rect x="680" y="100" width="440" height="480" rx="20" fill="#1e293b" stroke="#0ea5e9" stroke-width="1"/>
  <circle cx="900" cy="200" r="50" fill="#0ea5e9" opacity="0.15"/>
  <text x="900" y="210" font-family="sans-serif" font-size="14" fill="#38bdf8" text-anchor="middle" font-weight="bold">G</text>
  <text x="900" y="280" font-family="sans-serif" font-size="18" fill="white" text-anchor="middle" font-weight="bold">Google Ads</text>
  <rect x="720" y="310" width="320" height="40" rx="8" fill="#0f172a"/>
  <rect x="720" y="310" width="192" height="40" rx="8" fill="#0ea5e9" opacity="0.15"/>
  <text x="740" y="336" font-family="sans-serif" font-size="12" fill="#38bdf8">Awareness</text>
  <text x="1020" y="336" font-family="sans-serif" font-size="12" fill="#94a3b8" text-anchor="end">60%</text>
  <rect x="720" y="365" width="320" height="40" rx="8" fill="#0f172a"/>
  <rect x="720" y="365" width="224" height="40" rx="8" fill="#0ea5e9" opacity="0.15"/>
  <text x="740" y="391" font-family="sans-serif" font-size="12" fill="#38bdf8">Intent</text>
  <text x="1020" y="391" font-family="sans-serif" font-size="12" fill="#94a3b8" text-anchor="end">90%</text>
  <rect x="720" y="420" width="320" height="40" rx="8" fill="#0f172a"/>
  <rect x="720" y="420" width="288" height="40" rx="8" fill="#0ea5e9" opacity="0.2"/>
  <text x="740" y="446" font-family="sans-serif" font-size="12" fill="#38bdf8">Conversione</text>
  <text x="1020" y="446" font-family="sans-serif" font-size="12" fill="#94a3b8" text-anchor="end">85%</text>
  <text x="900" y="510" font-family="sans-serif" font-size="14" fill="#38bdf8" text-anchor="middle">CPC: 0.5-3€</text>
  <text x="900" y="540" font-family="sans-serif" font-size="12" fill="#94a3b8" text-anchor="middle">Ideale per intent e lead gen</text>
  <text x="600" y="640" font-family="sans-serif" font-size="16" fill="#64748b" text-anchor="middle">Dove investire il tuo budget?</text>
</svg>