<svg xmlns="http://www.w3.org/2000/svg" viewBox="0 0 1200 675" fill="none">
  <rect width="1200" height="675" fill="#0f172a"/>
  <rect x="100" y="120" width="400" height="440" rx="24" fill="#1e293b" stroke="#334155" stroke-width="1"/>
  <rect x="130" y="170" width="340" height="24" rx="4" fill="#0ea5e9" opacity="0.3"/>
  <rect x="130" y="210" width="280" height="16" rx="4" fill="#334155"/>
  <rect x="130" y="240" width="310" height="16" rx="4" fill="#334155"/>
  <rect x="130" y="270" width="240" height="16" rx="4" fill="#334155"/>
  <rect x="130" y="310" width="340" height="24" rx="4" fill="#0ea5e9" opacity="0.3"/>
  <rect x="130" y="350" width="300" height="16" rx="4" fill="#334155"/>
  <rect x="130" y="380" width="320" height="16" rx="4" fill="#334155"/>
  <rect x="130" y="420" width="200" height="40" rx="8" fill="#0ea5e9" opacity="0.15"/>
  <text x="230" y="446" font-family="monospace" font-size="14" fill="#38bdf8">rails new</text>
  <rect x="130" y="480" width="340" height="16" rx="4" fill="#334155"/>
  <polygon points="750,200 850,260 850,380 750,440 650,380 650,260" fill="#0ea5e9" opacity="0.12" stroke="#0ea5e9" stroke-width="1.5"/>
  <polygon points="750,240 820,280 820,360 750,400 680,360 680,280" fill="#0ea5e9" opacity="0.08"/>
  <text x="750" y="330" font-family="sans-serif" font-size="36" fill="#38bdf8" text-anchor="middle" font-weight="bold">R8</text>
  <circle cx="950" cy="180" r="40" fill="#1e293b" stroke="#334155" stroke-width="1"/>
  <path d="M935 180 L950 165 L965 180 L950 195 Z" fill="#0ea5e9" opacity="0.4"/>
  <circle cx="1000" cy="340" r="30" fill="#1e293b" stroke="#334155" stroke-width="1"/>
  <rect x="988" y="328" width="24" height="24" rx="4" fill="#0ea5e9" opacity="0.3"/>
  <circle cx="920" cy="480" r="35" fill="#1e293b" stroke="#334155" stroke-width="1"/>
  <path d="M905 480 L920 465 L935 480 L920 495 Z" fill="#38bdf8" opacity="0.3"/>
  <line x1="850" y1="260" x2="920" y2="195" stroke="#334155" stroke-width="1"/>
  <line x1="850" y1="380" x2="980" y2="340" stroke="#334155" stroke-width="1"/>
  <line x1="750" y1="440" x2="910" y2="470" stroke="#334155" stroke-width="1"/>
</svg>