<svg xmlns="http://www.w3.org/2000/svg" viewBox="0 0 1200 675" fill="none">
  <rect width="1200" height="675" fill="#0f172a"/>
  <rect x="80" y="100" width="500" height="320" rx="20" fill="#1e293b" stroke="#334155" stroke-width="1"/>
  <rect x="80" y="100" width="500" height="48" rx="20" fill="#1e293b"/>
  <rect x="80" y="146" width="500" height="2" fill="#334155"/>
  <circle cx="110" cy="124" r="8" fill="#ef4444" opacity="0.6"/>
  <circle cx="134" cy="124" r="8" fill="#eab308" opacity="0.6"/>
  <circle cx="158" cy="124" r="8" fill="#22c55e" opacity="0.6"/>
  <rect x="220" y="114" width="220" height="20" rx="10" fill="#0f172a"/>
  <rect x="110" y="170" width="200" height="28" rx="4" fill="#0ea5e9" opacity="0.15"/>
  <rect x="110" y="210" width="440" height="16" rx="4" fill="#334155"/>
  <rect x="110" y="236" width="380" height="16" rx="4" fill="#334155"/>
  <rect x="110" y="270" width="180" height="40" rx="8" fill="#0ea5e9"/>
  <text x="200" y="296" font-family="sans-serif" font-size="14" fill="white" text-anchor="middle" font-weight="bold">CTA</text>
  <rect x="110" y="330" width="440" height="16" rx="4" fill="#334155" opacity="0.5"/>
  <rect x="110" y="356" width="360" height="16" rx="4" fill="#334155" opacity="0.5"/>
  <rect x="680" y="140" width="420" height="200" rx="16" fill="#1e293b" stroke="#334155" stroke-width="1"/>
  <text x="720" y="180" font-family="sans-serif" font-size="14" fill="#64748b">Preventivo sito web</text>
  <rect x="720" y="200" width="340" height="1" fill="#334155"/>
  <text x="720" y="232" font-family="sans-serif" font-size="13" fill="#94a3b8">Design &amp; UX</text>
  <text x="1060" y="232" font-family="sans-serif" font-size="13" fill="#38bdf8" text-anchor="end">2.500</text>
  <text x="720" y="260" font-family="sans-serif" font-size="13" fill="#94a3b8">Sviluppo</text>
  <text x="1060" y="260" font-family="sans-serif" font-size="13" fill="#38bdf8" text-anchor="end">4.000</text>
  <text x="720" y="288" font-family="sans-serif" font-size="13" fill="#94a3b8">SEO &amp; Analytics</text>
  <text x="1060" y="288" font-family="sans-serif" font-size="13" fill="#38bdf8" text-anchor="end">1.500</text>
  <rect x="720" y="304" width="340" height="1" fill="#334155"/>
  <text x="720" y="328" font-family="sans-serif" font-size="14" fill="white" font-weight="bold">Totale</text>
  <text x="1060" y="328" font-family="sans-serif" font-size="14" fill="#0ea5e9" text-anchor="end" font-weight="bold">8.000</text>
  <rect x="680" y="380" width="200" height="140" rx="12" fill="#1e293b" stroke="#334155" stroke-width="1"/>
  <text x="780" y="420" font-family="sans-serif" font-size="12" fill="#64748b" text-anchor="middle">Base</text>
  <text x="780" y="460" font-family="sans-serif" font-size="28" fill="#38bdf8" text-anchor="middle" font-weight="bold">3K</text>
  <text x="780" y="485" font-family="sans-serif" font-size="11" fill="#94a3b8" text-anchor="middle">5 pagine</text>
  <rect x="900" y="380" width="200" height="140" rx="12" fill="#1e293b" stroke="#0ea5e9" stroke-width="1.5"/>
  <text x="1000" y="420" font-family="sans-serif" font-size="12" fill="#0ea5e9" text-anchor="middle">Pro</text>
  <text x="1000" y="460" font-family="sans-serif" font-size="28" fill="white" text-anchor="middle" font-weight="bold">8K</text>
  <text x="1000" y="485" font-family="sans-serif" font-size="11" fill="#94a3b8" text-anchor="middle">15+ pagine</text>
  <circle cx="200" cy="520" r="60" fill="#0ea5e9" fill-opacity="0.06" stroke="#0ea5e9" stroke-width="1" stroke-opacity="0.2"/>
  <text x="200" y="528" font-family="sans-serif" font-size="28" fill="#38bdf8" text-anchor="middle" font-weight="bold">€</text>
</svg>