<svg xmlns="http://www.w3.org/2000/svg" viewBox="0 0 1200 675" fill="none">
  <rect width="1200" height="675" fill="#0f172a"/>
  <rect x="60" y="100" width="520" height="480" rx="20" fill="#1e293b" stroke="#334155" stroke-width="1"/>
  <text x="100" y="140" font-family="sans-serif" font-size="14" fill="#64748b">Strategia Marketing PMI</text>
  <line x1="100" y1="160" x2="540" y2="160" stroke="#334155" stroke-width="1"/>
  <line x1="100" y1="540" x2="540" y2="540" stroke="#334155" stroke-width="0.5"/>
  <line x1="100" y1="440" x2="540" y2="440" stroke="#334155" stroke-width="0.5" stroke-dasharray="4 4"/>
  <line x1="100" y1="340" x2="540" y2="340" stroke="#334155" stroke-width="0.5" stroke-dasharray="4 4"/>
  <line x1="100" y1="240" x2="540" y2="240" stroke="#334155" stroke-width="0.5" stroke-dasharray="4 4"/>
  <path d="M120,520 C180,510 200,480 240,450 C280,420 320,380 360,320 C400,260 440,220 480,200 C500,190 520,180 540,170" fill="none" stroke="#0ea5e9" stroke-width="2.5"/>
  <path d="M120,520 C180,510 200,480 240,450 C280,420 320,380 360,320 C400,260 440,220 480,200 C500,190 520,180 540,170 L540,540 L120,540 Z" fill="#0ea5e9" opacity="0.06"/>
  <circle cx="240" cy="450" r="4" fill="#0ea5e9"/>
  <circle cx="360" cy="320" r="4" fill="#0ea5e9"/>
  <circle cx="480" cy="200" r="4" fill="#0ea5e9"/>
  <text x="100" y="555" font-family="sans-serif" font-size="10" fill="#64748b">Gen</text>
  <text x="210" y="555" font-family="sans-serif" font-size="10" fill="#64748b">Apr</text>
  <text x="320" y="555" font-family="sans-serif" font-size="10" fill="#64748b">Lug</text>
  <text x="430" y="555" font-family="sans-serif" font-size="10" fill="#64748b">Ott</text>
  <text x="520" y="555" font-family="sans-serif" font-size="10" fill="#64748b">Dic</text>
  <rect x="660" y="100" width="460" height="120" rx="16" fill="#1e293b" stroke="#334155" stroke-width="1"/>
  <circle cx="710" cy="160" r="28" fill="#0ea5e9" opacity="0.1"/>
  <text x="710" y="168" font-family="sans-serif" font-size="22" text-anchor="middle">&#127919;</text>
  <text x="760" y="145" font-family="sans-serif" font-size="14" fill="white" font-weight="bold">Obiettivi SMART</text>
  <text x="760" y="170" font-family="sans-serif" font-size="12" fill="#94a3b8">Definisci KPI misurabili</text>
  <rect x="660" y="240" width="460" height="120" rx="16" fill="#1e293b" stroke="#334155" stroke-width="1"/>
  <circle cx="710" cy="300" r="28" fill="#0ea5e9" opacity="0.1"/>
  <text x="710" y="308" font-family="sans-serif" font-size="22" text-anchor="middle">&#128101;</text>
  <text x="760" y="285" font-family="sans-serif" font-size="14" fill="white" font-weight="bold">Target Audience</text>
  <text x="760" y="310" font-family="sans-serif" font-size="12" fill="#94a3b8">Buyer personas e segmenti</text>
  <rect x="660" y="380" width="460" height="120" rx="16" fill="#1e293b" stroke="#0ea5e9" stroke-width="1"/>
  <circle cx="710" cy="440" r="28" fill="#0ea5e9" opacity="0.15"/>
  <text x="710" y="448" font-family="sans-serif" font-size="22" text-anchor="middle">&#128200;</text>
  <text x="760" y="425" font-family="sans-serif" font-size="14" fill="white" font-weight="bold">Canali &amp; Budget</text>
  <text x="760" y="450" font-family="sans-serif" font-size="12" fill="#94a3b8">SEO, Social, ADV, Email</text>
  <rect x="660" y="520" width="460" height="60" rx="12" fill="#0ea5e9" opacity="0.1"/>
  <text x="890" y="556" font-family="sans-serif" font-size="13" fill="#38bdf8" text-anchor="middle">Risultati misurabili &#8594;</text>
</svg>