<svg xmlns="http://www.w3.org/2000/svg" viewBox="0 0 1200 675" fill="none">
  <rect width="1200" height="675" fill="#0f172a"/>
  <rect x="60" y="80" width="500" height="520" rx="20" fill="#1e293b" stroke="#334155" stroke-width="1"/>
  <rect x="60" y="80" width="500" height="50" rx="20" fill="#1e293b"/>
  <rect x="60" y="128" width="500" height="2" fill="#334155"/>
  <text x="310" y="110" font-family="sans-serif" font-size="14" fill="#94a3b8" text-anchor="middle">E-commerce UX</text>
  <rect x="90" y="150" width="440" height="200" rx="12" fill="#0f172a" stroke="#334155" stroke-width="1"/>
  <rect x="110" y="170" width="120" height="160" rx="8" fill="#1e293b" stroke="#334155" stroke-width="1"/>
  <rect x="120" y="180" width="100" height="80" rx="4" fill="#0ea5e9" opacity="0.1"/>
  <text x="170" y="290" font-family="sans-serif" font-size="10" fill="#94a3b8" text-anchor="middle">Prodotto A</text>
  <text x="170" y="310" font-family="sans-serif" font-size="12" fill="white" text-anchor="middle" font-weight="bold">€49</text>
  <rect x="250" y="170" width="120" height="160" rx="8" fill="#1e293b" stroke="#0ea5e9" stroke-width="1.5"/>
  <rect x="260" y="180" width="100" height="80" rx="4" fill="#0ea5e9" opacity="0.15"/>
  <text x="310" y="290" font-family="sans-serif" font-size="10" fill="#94a3b8" text-anchor="middle">Prodotto B</text>
  <text x="310" y="310" font-family="sans-serif" font-size="12" fill="white" text-anchor="middle" font-weight="bold">€79</text>
  <rect x="390" y="170" width="120" height="160" rx="8" fill="#1e293b" stroke="#334155" stroke-width="1"/>
  <rect x="400" y="180" width="100" height="80" rx="4" fill="#0ea5e9" opacity="0.1"/>
  <text x="450" y="290" font-family="sans-serif" font-size="10" fill="#94a3b8" text-anchor="middle">Prodotto C</text>
  <text x="450" y="310" font-family="sans-serif" font-size="12" fill="white" text-anchor="middle" font-weight="bold">€35</text>
  <rect x="90" y="370" width="440" height="60" rx="12" fill="#0f172a" stroke="#334155" stroke-width="1"/>
  <rect x="110" y="385" width="30" height="30" rx="6" fill="#0ea5e9" opacity="0.15"/>
  <text x="125" y="405" font-family="sans-serif" font-size="14" fill="#38bdf8" text-anchor="middle">&#128722;</text>
  <text x="160" y="400" font-family="sans-serif" font-size="13" fill="#94a3b8">2 articoli nel carrello</text>
  <text x="490" y="404" font-family="sans-serif" font-size="13" fill="white" text-anchor="end" font-weight="bold">€128</text>
  <rect x="90" y="450" width="440" height="50" rx="25" fill="#0ea5e9"/>
  <text x="310" y="482" font-family="sans-serif" font-size="15" fill="white" text-anchor="middle" font-weight="bold">Checkout sicuro &#8594;</text>
  <rect x="90" y="520" width="440" height="50" rx="12" fill="#0f172a"/>
  <text x="150" y="548" font-family="sans-serif" font-size="11" fill="#64748b">&#128274; Pagamento sicuro</text>
  <text x="310" y="548" font-family="sans-serif" font-size="11" fill="#64748b">&#128666; Reso gratuito</text>
  <text x="460" y="548" font-family="sans-serif" font-size="11" fill="#64748b">&#11088; 4.8/5</text>
  <rect x="640" y="100" width="480" height="120" rx="16" fill="#1e293b" stroke="#334155" stroke-width="1"/>
  <text x="680" y="140" font-family="sans-serif" font-size="13" fill="#0ea5e9">01</text>
  <text x="720" y="140" font-family="sans-serif" font-size="14" fill="white" font-weight="bold">Navigazione intuitiva</text>
  <text x="720" y="165" font-family="sans-serif" font-size="12" fill="#94a3b8">Riduci i click per l'acquisto</text>
  <rect x="640" y="240" width="480" height="120" rx="16" fill="#1e293b" stroke="#334155" stroke-width="1"/>
  <text x="680" y="280" font-family="sans-serif" font-size="13" fill="#0ea5e9">02</text>
  <text x="720" y="280" font-family="sans-serif" font-size="14" fill="white" font-weight="bold">CTA chiare e visibili</text>
  <text x="720" y="305" font-family="sans-serif" font-size="12" fill="#94a3b8">Bottoni ad alto contrasto</text>
  <rect x="640" y="380" width="480" height="120" rx="16" fill="#1e293b" stroke="#0ea5e9" stroke-width="1"/>
  <text x="680" y="420" font-family="sans-serif" font-size="13" fill="#0ea5e9">03</text>
  <text x="720" y="420" font-family="sans-serif" font-size="14" fill="white" font-weight="bold">Social proof e trust</text>
  <text x="720" y="445" font-family="sans-serif" font-size="12" fill="#94a3b8">Recensioni e badge di sicurezza</text>
  <rect x="640" y="520" width="230" height="80" rx="12" fill="#1e293b" stroke="#334155" stroke-width="1"/>
  <text x="680" y="555" font-family="sans-serif" font-size="11" fill="#64748b">Conv. Rate</text>
  <text x="680" y="580" font-family="sans-serif" font-size="22" fill="#22c55e" font-weight="bold">+34%</text>
  <rect x="890" y="520" width="230" height="80" rx="12" fill="#1e293b" stroke="#334155" stroke-width="1"/>
  <text x="930" y="555" font-family="sans-serif" font-size="11" fill="#64748b">AOV</text>
  <text x="930" y="580" font-family="sans-serif" font-size="22" fill="#0ea5e9" font-weight="bold">+22%</text>
</svg>